# xmcd CD database file
#
# Track frame offsets:
#	150
#	25109
#	51269
#	73321
#	87978
#	104580
#	127817
#	150449
#	172598
#	192005
#	213012
#	239179
#	269841
#
# Disc length: 3832 seconds
#
# Revision: 2
# Processed by: cddbd v1.5.2PL0 Copyright (c) Steve Scherf et al.
# Submitted via: jetAudio 7
#
DISCID=b20ef60d
DTITLE=Mr.Children - Q
DYEAR=1900
DGENRE=J-Pop
TTITLE0=･ﾈ･鬣ﾃ･ｯ 1
TTITLE1=･ﾈ･鬣ﾃ･ｯ 2
TTITLE2=･ﾈ･鬣ﾃ･ｯ 3
TTITLE3=･ﾈ･鬣ﾃ･ｯ 4
TTITLE4=･ﾈ･鬣ﾃ･ｯ 5
TTITLE5=･ﾈ･鬣ﾃ･ｯ 6
TTITLE6=･ﾈ･鬣ﾃ･ｯ 7
TTITLE7=･ﾈ･鬣ﾃ･ｯ 8
TTITLE8=･ﾈ･鬣ﾃ･ｯ 9
TTITLE9=･ﾈ･鬣ﾃ･ｯ 10
TTITLE10=･ﾈ･鬣ﾃ･ｯ 11
TTITLE11=･ﾈ･鬣ﾃ･ｯ 12
TTITLE12=･ﾈ･鬣ﾃ･ｯ 13
EXTD=
EXTT0=
EXTT1=
EXTT2=
EXTT3=
EXTT4=
EXTT5=
EXTT6=
EXTT7=
EXTT8=
EXTT9=
EXTT10=
EXTT11=
EXTT12=
PLAYORDER=
